<svg xmlns="http://www.w3.org/2000/svg" xmlns:xlink="http://www.w3.org/1999/xlink" version="1.1" fill="#ffffff" x="0px" y="0px" viewBox="0 0 100 100" style="enable-background:new 0 0 100 100;" xml:space="preserve"><g><g><path d="M79.4,45.8L23.8,10c-0.9-0.6-1.8-0.8-2.7-0.8c-2.6,0-5.1,2.1-5.1,5.1v71.4c0,3,2.4,5.1,5.1,5.1c0.9,0,1.9-0.3,2.7-0.8    l55.6-35.7C82.5,52.3,82.5,47.8,79.4,45.8z M78.8,53.4L23.3,89.2c-0.7,0.4-1.4,0.7-2.2,0.7c-2,0-4.1-1.6-4.1-4.1V14.3    c0-2.5,2.1-4.1,4.1-4.1c0.8,0,1.5,0.2,2.2,0.7l55.6,35.7c1.2,0.8,1.9,2,1.9,3.4S80,52.7,78.8,53.4z"></path></g></g></svg>
